<svg width="200" height="60" viewBox="0 0 200 60" fill="none" xmlns="http://www.w3.org/2000/svg">
  <!-- Robot Head Circle -->
  <circle cx="30" cy="30" r="24" fill="#18181B" stroke="#3F3F46" stroke-width="2"/>
  
  <!-- Brain Circuits Inside Head -->
  <path d="M 20 25 Q 25 20, 30 25 T 40 25" stroke="#58a6ff" stroke-width="1.5" fill="none" opacity="0.6"/>
  <path d="M 22 30 Q 27 28, 30 30 T 36 30" stroke="#58a6ff" stroke-width="1.5" fill="none" opacity="0.6"/>
  <path d="M 24 35 Q 27 33, 30 35 T 36 35" stroke="#58a6ff" stroke-width="1.5" fill="none" opacity="0.6"/>
  
  <!-- Neural Network Nodes -->
  <circle cx="25" cy="25" r="1.5" fill="#58a6ff"/>
  <circle cx="30" cy="22" r="1.5" fill="#58a6ff"/>
  <circle cx="35" cy="25" r="1.5" fill="#58a6ff"/>
  <circle cx="27" cy="30" r="1.5" fill="#58a6ff"/>
  <circle cx="33" cy="30" r="1.5" fill="#58a6ff"/>
  
  <!-- Robot Eyes -->
  <circle cx="23" cy="28" r="3" fill="#58a6ff"/>
  <circle cx="37" cy="28" r="3" fill="#58a6ff"/>
  <circle cx="23" cy="28" r="1.5" fill="#FFFFFF"/>
  <circle cx="37" cy="28" r="1.5" fill="#FFFFFF"/>
  
  <!-- Robot Antenna -->
  <line x1="30" y1="6" x2="30" y2="10" stroke="#58a6ff" stroke-width="2" stroke-linecap="round"/>
  <circle cx="30" cy="4" r="2" fill="#58a6ff"/>
  
  <!-- Brainiac Dev Text -->
  <text x="62" y="28" font-family="system-ui, -apple-system, sans-serif" font-size="24" font-weight="700" fill="#F0F6FC">
    Brainiac
  </text>
  <text x="62" y="45" font-family="system-ui, -apple-system, sans-serif" font-size="14" font-weight="400" fill="#8B949E" letter-spacing="0.5">
    DEV
  </text>
  
  <!-- Circuit Lines Decoration -->
  <line x1="54" y1="30" x2="60" y2="30" stroke="#3F3F46" stroke-width="1" opacity="0.5"/>
  <circle cx="54" cy="30" r="1" fill="#58a6ff" opacity="0.5"/>
</svg>
