<svg width="64" height="64" viewBox="0 0 64 64" fill="none" xmlns="http://www.w3.org/2000/svg">
  <!-- Robot Head Circle -->
  <circle cx="32" cy="32" r="28" fill="#18181B" stroke="#58a6ff" stroke-width="3"/>
  
  <!-- Brain Circuits Inside Head -->
  <path d="M 18 26 Q 25 20, 32 26 T 46 26" stroke="#58a6ff" stroke-width="2" fill="none" opacity="0.7"/>
  <path d="M 20 32 Q 26 30, 32 32 T 44 32" stroke="#58a6ff" stroke-width="2" fill="none" opacity="0.7"/>
  <path d="M 22 38 Q 27 36, 32 38 T 42 38" stroke="#58a6ff" stroke-width="2" fill="none" opacity="0.7"/>
  
  <!-- Neural Network Nodes -->
  <circle cx="25" cy="26" r="2" fill="#58a6ff"/>
  <circle cx="32" cy="23" r="2" fill="#58a6ff"/>
  <circle cx="39" cy="26" r="2" fill="#58a6ff"/>
  <circle cx="27" cy="32" r="2" fill="#58a6ff"/>
  <circle cx="37" cy="32" r="2" fill="#58a6ff"/>
  
  <!-- Robot Eyes -->
  <circle cx="24" cy="30" r="4" fill="#58a6ff"/>
  <circle cx="40" cy="30" r="4" fill="#58a6ff"/>
  <circle cx="24" cy="30" r="2" fill="#FFFFFF"/>
  <circle cx="40" cy="30" r="2" fill="#FFFFFF"/>
  
  <!-- Robot Antenna -->
  <line x1="32" y1="4" x2="32" y2="8" stroke="#58a6ff" stroke-width="3" stroke-linecap="round"/>
  <circle cx="32" cy="2" r="3" fill="#58a6ff"/>
</svg>
